<?xml version="1.0" standalone="no"?>
<!DOCTYPE svg PUBLIC "-//W3C//DTD SVG 20010904//EN"
 "http://www.w3.org/TR/2001/REC-SVG-20010904/DTD/svg10.dtd">
<svg version="1.0" xmlns="http://www.w3.org/2000/svg"
 width="1199.000000pt" height="1198.000000pt" viewBox="0 0 1199.000000 1198.000000"
 preserveAspectRatio="xMidYMid meet">
<metadata>
Created by potrace 1.16, written by Peter Selinger 2001-2019
</metadata>
<g transform="translate(0.000000,1198.000000) scale(0.100000,-0.100000)"
fill="#000000" stroke="none">
<path d="M5630 11970 c-1254 -81 -2405 -520 -3370 -1285 -1061 -841 -1812
-2031 -2106 -3335 -103 -460 -148 -870 -147 -1360 0 -966 214 -1870 643 -2715
582 -1148 1505 -2067 2656 -2643 866 -433 1831 -649 2819 -629 688 14 1305
130 1932 363 502 187 886 389 1376 723 199 136 514 400 736 616 447 436 807
913 1109 1470 364 672 586 1400 678 2225 26 225 26 884 1 1130 -35 340 -82
612 -162 930 -386 1538 -1363 2852 -2732 3676 -453 273 -988 498 -1523 642
-313 85 -645 143 -1015 178 -192 18 -708 26 -895 14z m540 -95 c500 -24 828
-71 1255 -176 168 -42 448 -126 550 -164 302 -115 380 -149 575 -243 525 -254
1008 -585 1469 -1007 148 -135 407 -407 483 -507 15 -20 33 -42 40 -50 7 -7
35 -42 63 -78 27 -36 55 -72 62 -80 70 -86 303 -438 303 -457 0 -17 -50 -19
-255 -11 -585 23 -1167 138 -1730 342 -641 233 -1308 624 -1835 1075 -148 127
-422 395 -547 536 -164 185 -375 462 -507 665 -38 58 -77 117 -87 132 -25 36
-24 41 9 34 15 -2 83 -8 152 -11z m-364 -11 c-6 -14 -201 -309 -284 -429 -86
-123 -280 -371 -361 -460 -20 -22 -58 -65 -85 -95 -59 -66 -313 -325 -388
-395 -311 -292 -675 -561 -1053 -778 -322 -184 -676 -341 -1041 -463 -146 -48
-222 -70 -457 -133 -142 -38 -523 -110 -692 -130 -179 -21 -487 -46 -533 -42
-9 1 -3 19 19 58 46 80 247 385 274 416 6 7 35 46 65 87 68 94 195 254 274
345 34 38 77 88 95 110 85 98 448 450 566 548 275 229 620 473 789 559 22 11
43 23 46 27 14 17 339 182 505 257 468 209 999 368 1510 453 143 24 244 35
505 57 107 8 196 17 197 18 1 1 14 3 28 4 21 1 26 -2 21 -14z m160 -151 c240
-494 294 -617 379 -865 170 -495 270 -946 327 -1483 20 -189 17 -871 -5 -1060
-80 -680 -229 -1231 -504 -1855 -71 -162 -161 -330 -176 -330 -7 0 -41 53 -77
117 -349 629 -578 1343 -669 2093 -34 279 -44 492 -38 815 9 453 42 732 142
1205 60 283 209 731 355 1065 31 72 201 415 205 415 2 0 29 -53 61 -117z
m5024 -2728 c0 -2 -25 -45 -55 -96 -30 -50 -55 -93 -55 -96 0 -2 -5 -9 -10
-16 -6 -7 -48 -69 -94 -139 -72 -109 -133 -193 -270 -373 -17 -22 -33 -42 -36
-45 -3 -3 -39 -45 -80 -95 -185 -224 -469 -506 -719 -715 -29 -25 -59 -50 -65
-56 -6 -5 -83 -64 -171 -130 -800 -600 -1734 -988 -2715 -1128 -188 -27 -599
-58 -629 -48 -19 6 211 365 373 582 296 397 576 687 1021 1059 184 154 532
388 806 544 512 290 1165 534 1694 633 196 37 310 55 453 74 131 17 215 25
482 43 25 2 51 4 58 5 6 1 12 0 12 -3z m201 -240 c347 -664 550 -1300 638
-2000 137 -1079 -18 -2153 -452 -3125 -83 -188 -185 -390 -195 -390 -20 0
-248 435 -330 630 -236 558 -376 1124 -438 1775 -21 218 -24 770 -6 975 61
680 197 1246 432 1799 97 231 246 519 260 504 4 -4 45 -80 91 -168z m-10006
69 c739 -54 1380 -197 1973 -440 215 -88 368 -161 567 -269 722 -394 1364
-961 1906 -1682 62 -81 122 -164 135 -183 12 -19 43 -64 68 -100 25 -36 46
-71 46 -77 0 -32 -564 3 -930 58 -376 57 -787 164 -1155 302 -560 210 -1156
560 -1630 958 -197 165 -232 197 -436 399 -252 250 -386 409 -621 735 -45 63
-198 302 -198 309 0 6 130 1 275 -10z m-365 -44 c0 -5 48 -107 106 -227 195
-401 244 -518 354 -853 164 -497 264 -997 301 -1499 17 -239 6 -765 -20 -986
-69 -562 -178 -995 -388 -1535 -77 -199 -242 -556 -276 -598 -13 -16 -56 56
-177 298 -337 674 -534 1375 -602 2150 -19 213 -16 770 6 995 47 496 149 974
290 1368 18 50 44 121 56 157 41 115 139 340 237 543 86 175 113 220 113 187z
m5600 -2840 c287 -24 483 -45 595 -65 188 -33 248 -45 382 -75 154 -33 466
-121 603 -168 846 -294 1576 -750 2230 -1394 294 -288 560 -615 766 -940 41
-64 74 -119 74 -123 0 -10 -272 -5 -452 10 -1308 106 -2439 589 -3453 1474
-163 143 -418 399 -546 551 -173 204 -412 532 -529 724 l-23 39 54 -7 c30 -3
164 -15 299 -26z m-510 6 c0 -11 -331 -502 -398 -591 -177 -235 -408 -492
-648 -724 -118 -114 -193 -181 -373 -333 -149 -127 -441 -328 -683 -473 -609
-365 -1380 -639 -2123 -754 -201 -32 -669 -70 -682 -57 -10 10 20 61 156 266
96 145 318 452 340 470 3 3 26 30 50 60 281 348 640 695 996 964 608 461 1325
798 2115 996 339 85 516 114 940 155 258 24 310 28 310 21z m125 -126 c43 -75
179 -345 223 -440 451 -988 612 -2083 471 -3210 -64 -516 -228 -1095 -449
-1590 -49 -111 -157 -332 -181 -373 l-17 -29 -40 69 c-254 439 -435 889 -577
1428 -59 224 -124 622 -150 909 -96 1091 97 2136 573 3111 64 131 102 199 107
193 2 -2 20 -32 40 -68z m5065 -2768 c0 -5 -14 -29 -32 -53 -18 -24 -70 -100
-116 -169 -47 -69 -100 -147 -120 -175 -54 -76 -196 -269 -202 -275 -3 -3 -36
-43 -74 -90 -226 -280 -554 -615 -806 -821 -36 -29 -67 -56 -70 -59 -17 -23
-333 -252 -475 -345 -597 -391 -1217 -647 -2000 -825 -65 -14 -313 -58 -400
-70 -100 -13 -516 -50 -572 -50 -51 0 -52 -3 30 135 98 164 345 524 387 565 3
3 34 41 70 85 57 72 172 204 225 261 180 192 393 393 555 524 30 25 57 47 60
51 3 3 68 53 145 111 583 439 1233 770 1895 965 184 54 178 52 400 102 326 73
550 103 1010 134 25 2 55 4 68 5 12 1 22 -2 22 -6z m-9685 -173 c996 -71 1953
-391 2770 -927 519 -341 1022 -794 1391 -1252 131 -162 319 -432 373 -535 l21
-40 -142 -3 c-334 -7 -847 59 -1263 164 -500 126 -950 305 -1431 568 -279 152
-737 467 -959 660 -253 219 -564 530 -676 677 -15 19 -39 48 -54 64 -74 82
-351 470 -418 586 -15 25 -24 49 -20 53 8 8 182 1 408 -15z"/>
</g>
</svg>
